<svg xmlns="http://www.w3.org/2000/svg" viewBox="0 0 24 24"><defs><style>.cls-1{fill:none;stroke:#2188d9;stroke-linecap:round;stroke-linejoin:round;stroke-width:2px;}</style></defs><title>HeatMap</title><g id="HeatMap"><polyline class="cls-1" points="3 21 7 21 7 19 3 19 3 21"/><polyline class="cls-1" points="10 21 14 21 14 19 10 19 10 21"/><polyline class="cls-1" points="17 21 21 21 21 19 17 19 17 21"/><polyline class="cls-1" points="3 16 7 16 7 14 3 14 3 16"/><polyline class="cls-1" points="3 11 7 11 7 9 3 9 3 11"/><polyline class="cls-1" points="10 16 14 16 14 14 10 14 10 16"/><polyline class="cls-1" points="10 6 14 6 14 4 10 4 10 6"/><polyline class="cls-1" points="17 11 21 11 21 9 17 9 17 11"/><polyline class="cls-1" points="17 6 21 6 21 4 17 4 17 6"/></g></svg>
